<!DOCTYPE svg PUBLIC "-//W3C//DTD SVG 1.1//EN" "http://www.w3.org/Graphics/SVG/1.1/DTD/svg11.dtd">

<!-- Uploaded to: SVG Repo, www.svgrepo.com, Transformed by: SVG Repo Mixer Tools -->
<svg width="25px" height="25px" viewBox="-5.28 0 85.619 85.619" xmlns="http://www.w3.org/2000/svg" fill="#000000">

<g id="SVGRepo_bgCarrier" stroke-width="0"/>

<g id="SVGRepo_tracerCarrier" stroke-linecap="round" stroke-linejoin="round"/>

<g id="SVGRepo_iconCarrier"> <g id="add_to_bag" data-name="add to bag" transform="translate(-1469.697 -806.137)"> <g id="Group_59" data-name="Group 59"> <path id="Path_156" data-name="Path 156" d="M1469.7,829.042v51.916a4.59,4.59,0,0,0,4.575,4.58h56.754a4.592,4.592,0,0,0,4.582-4.58V829.042Z" fill="#2286d3"/> <path id="Path_157" data-name="Path 157" d="M1532.156,827.239l-3.465-1.843,3.465-3.632.011-.019h-59.053l.015.019,3.468,3.632-3.468,1.843-3.4,1.8h65.837Z" fill="#3e4f93"/> <path id="Path_158" data-name="Path 158" d="M1532.156,821.764l-3.465,3.632,3.465,1.843.011,0v-5.5Z" fill="#2286d3"/> <path id="Path_159" data-name="Path 159" d="M1473.129,827.239l3.468-1.843-3.468-3.632Z" fill="#2286d3"/> <path id="Path_160" data-name="Path 160" d="M1488.464,845.269a3.815,3.815,0,1,1-3.816-3.82A3.818,3.818,0,0,1,1488.464,845.269Z" fill="#3e4f93"/> <path id="Path_161" data-name="Path 161" d="M1525.044,845.269a3.815,3.815,0,1,1-3.813-3.82A3.817,3.817,0,0,1,1525.044,845.269Z" fill="#3e4f93"/> <path id="Path_162" data-name="Path 162" d="M1503.031,806.137a20.489,20.489,0,0,0-20.489,20.487c0,.166,0,8.544.01,17.541v.03c0,.006-.01.015-.01.02s.01.016.01.024a2.29,2.29,0,0,0,4.579-.024c0-.014-.013-.03-.013-.05h.013c0-9.016-.008-17.431-.008-17.541a15.906,15.906,0,0,1,31.813,0c0,.189,0,7.793,0,15.4,0,.666,0,1.325-.008,1.985,0,.054-.013.1-.013.158a.191.191,0,0,0-.005.05c0,.072.018.138.018.206a2.283,2.283,0,0,0,4.558-.206v-.05h.024v-2.137c.005-7.6.005-15.213.005-15.4A20.481,20.481,0,0,0,1503.031,806.137Z" fill="#163844"/> </g> <path id="Path_163" data-name="Path 163" d="M1544.757,874.526a17.233,17.233,0,1,1-17.235-17.233A17.232,17.232,0,0,1,1544.757,874.526Z" fill="#27b7ff"/> <path id="Path_164" data-name="Path 164" d="M1534.948,873.094h-6v-6h-3v6h-5.993v3h5.993v5.991h3v-5.991h6Z" fill="#ffffff"/> </g> </g>

</svg>